<mxfile host="app.diagrams.net" modified="2024-02-09T00:26:26.404Z" agent="Mozilla/5.0 (Windows NT 10.0; Win64; x64) AppleWebKit/537.36 (KHTML, like Gecko) Chrome/120.0.0.0 YaBrowser/24.1.0.0 Safari/537.36" etag="JQKuyj4BiZtaZPGj8sxa" version="23.1.2" type="device">
  <diagram name="Страница — 1" id="Li5uMFaxoMfVkPa6oZcJ">
    <mxGraphModel dx="891" dy="489" grid="1" gridSize="10" guides="1" tooltips="1" connect="1" arrows="1" fold="1" page="1" pageScale="1" pageWidth="827" pageHeight="1169" math="0" shadow="0">
      <root>
        <mxCell id="0" />
        <mxCell id="1" parent="0" />
        <mxCell id="_n4gsnpSQP3cL_mL8Zwn-1" value="Начало&lt;br&gt;Lab8_Result" style="rounded=1;whiteSpace=wrap;html=1;arcSize=50;" parent="1" vertex="1">
          <mxGeometry x="530" y="40" width="140" height="40" as="geometry" />
        </mxCell>
        <mxCell id="_n4gsnpSQP3cL_mL8Zwn-2" value="" style="endArrow=none;html=1;rounded=0;entryX=0.5;entryY=1;entryDx=0;entryDy=0;exitX=0.5;exitY=0;exitDx=0;exitDy=0;" parent="1" source="_n4gsnpSQP3cL_mL8Zwn-6" target="_n4gsnpSQP3cL_mL8Zwn-1" edge="1">
          <mxGeometry width="50" height="50" relative="1" as="geometry">
            <mxPoint x="600" y="90" as="sourcePoint" />
            <mxPoint x="550" y="160" as="targetPoint" />
          </mxGeometry>
        </mxCell>
        <mxCell id="_n4gsnpSQP3cL_mL8Zwn-4" value="Lab_dll.DataGridClear(DataGrid);" style="shape=process;whiteSpace=wrap;html=1;backgroundOutline=1;" parent="1" vertex="1">
          <mxGeometry x="485" y="160" width="230" height="30" as="geometry" />
        </mxCell>
        <mxCell id="_n4gsnpSQP3cL_mL8Zwn-5" value="" style="endArrow=none;html=1;rounded=0;exitX=0.5;exitY=0;exitDx=0;exitDy=0;entryX=0.5;entryY=1;entryDx=0;entryDy=0;" parent="1" source="_n4gsnpSQP3cL_mL8Zwn-4" target="_n4gsnpSQP3cL_mL8Zwn-6" edge="1">
          <mxGeometry width="50" height="50" relative="1" as="geometry">
            <mxPoint x="500" y="180" as="sourcePoint" />
            <mxPoint x="600" y="120" as="targetPoint" />
          </mxGeometry>
        </mxCell>
        <mxCell id="_n4gsnpSQP3cL_mL8Zwn-6" value="&lt;div style=&quot;border-color: var(--border-color);&quot;&gt;double prev_x;&lt;/div&gt;&lt;div style=&quot;border-color: var(--border-color);&quot;&gt;int k = 0;&lt;/div&gt;&lt;div style=&quot;border-color: var(--border-color);&quot;&gt;&lt;span style=&quot;border-color: var(--border-color);&quot;&gt;double temp = x0;&lt;/span&gt;&lt;/div&gt;" style="rounded=1;whiteSpace=wrap;html=1;arcSize=0;" parent="1" vertex="1">
          <mxGeometry x="540" y="90" width="120" height="60" as="geometry" />
        </mxCell>
        <mxCell id="_n4gsnpSQP3cL_mL8Zwn-7" value="" style="endArrow=none;html=1;rounded=0;entryX=0.5;entryY=0;entryDx=0;entryDy=0;exitX=0.5;exitY=1;exitDx=0;exitDy=0;" parent="1" source="_n4gsnpSQP3cL_mL8Zwn-9" target="_n4gsnpSQP3cL_mL8Zwn-8" edge="1">
          <mxGeometry width="50" height="50" relative="1" as="geometry">
            <mxPoint x="600" y="300" as="sourcePoint" />
            <mxPoint x="610" y="100" as="targetPoint" />
          </mxGeometry>
        </mxCell>
        <mxCell id="_n4gsnpSQP3cL_mL8Zwn-17" style="edgeStyle=orthogonalEdgeStyle;rounded=0;orthogonalLoop=1;jettySize=auto;html=1;" parent="1" source="_n4gsnpSQP3cL_mL8Zwn-8" edge="1">
          <mxGeometry relative="1" as="geometry">
            <mxPoint x="600" y="200" as="targetPoint" />
            <Array as="points">
              <mxPoint x="800" y="385" />
              <mxPoint x="800" y="200" />
            </Array>
          </mxGeometry>
        </mxCell>
        <mxCell id="_n4gsnpSQP3cL_mL8Zwn-8" value="(Math.Abs(prev_x - temp) &amp;gt;= eps &amp;amp;&amp;amp; k &amp;lt; MaxIter);" style="rhombus;whiteSpace=wrap;html=1;" parent="1" vertex="1">
          <mxGeometry x="425" y="350" width="350" height="70" as="geometry" />
        </mxCell>
        <mxCell id="_n4gsnpSQP3cL_mL8Zwn-9" value="k++;" style="rounded=1;whiteSpace=wrap;html=1;arcSize=0;" parent="1" vertex="1">
          <mxGeometry x="540" y="320" width="120" height="20" as="geometry" />
        </mxCell>
        <mxCell id="_n4gsnpSQP3cL_mL8Zwn-10" value="temp = prev_x * Lab8_MakeResult(prev_x, k);" style="rounded=1;whiteSpace=wrap;html=1;arcSize=0;" parent="1" vertex="1">
          <mxGeometry x="475" y="240" width="250" height="30" as="geometry" />
        </mxCell>
        <mxCell id="_n4gsnpSQP3cL_mL8Zwn-11" value="" style="endArrow=none;html=1;rounded=0;entryX=0.5;entryY=1;entryDx=0;entryDy=0;exitX=0.5;exitY=0;exitDx=0;exitDy=0;" parent="1" source="_n4gsnpSQP3cL_mL8Zwn-12" target="_n4gsnpSQP3cL_mL8Zwn-10" edge="1">
          <mxGeometry width="50" height="50" relative="1" as="geometry">
            <mxPoint x="600" y="280" as="sourcePoint" />
            <mxPoint x="650" y="290" as="targetPoint" />
          </mxGeometry>
        </mxCell>
        <mxCell id="_n4gsnpSQP3cL_mL8Zwn-12" value="Lab_dll.Lab8_new_row(k+1, temp, DataGrid);" style="shape=process;whiteSpace=wrap;html=1;backgroundOutline=1;" parent="1" vertex="1">
          <mxGeometry x="445" y="280" width="310" height="30" as="geometry" />
        </mxCell>
        <mxCell id="_n4gsnpSQP3cL_mL8Zwn-13" value="" style="endArrow=none;html=1;rounded=0;entryX=0.5;entryY=1;entryDx=0;entryDy=0;exitX=0.5;exitY=0;exitDx=0;exitDy=0;" parent="1" source="_n4gsnpSQP3cL_mL8Zwn-9" target="_n4gsnpSQP3cL_mL8Zwn-12" edge="1">
          <mxGeometry width="50" height="50" relative="1" as="geometry">
            <mxPoint x="600" y="340" as="sourcePoint" />
            <mxPoint x="650" y="290" as="targetPoint" />
          </mxGeometry>
        </mxCell>
        <mxCell id="_n4gsnpSQP3cL_mL8Zwn-14" value="" style="endArrow=none;html=1;rounded=0;entryX=0.5;entryY=0;entryDx=0;entryDy=0;exitX=0.5;exitY=1;exitDx=0;exitDy=0;" parent="1" source="_n4gsnpSQP3cL_mL8Zwn-15" target="_n4gsnpSQP3cL_mL8Zwn-10" edge="1">
          <mxGeometry width="50" height="50" relative="1" as="geometry">
            <mxPoint x="600" y="220" as="sourcePoint" />
            <mxPoint x="650" y="290" as="targetPoint" />
          </mxGeometry>
        </mxCell>
        <mxCell id="_n4gsnpSQP3cL_mL8Zwn-15" value="prev_x = temp;" style="rounded=1;whiteSpace=wrap;html=1;arcSize=0;" parent="1" vertex="1">
          <mxGeometry x="540" y="210" width="120" height="20" as="geometry" />
        </mxCell>
        <mxCell id="_n4gsnpSQP3cL_mL8Zwn-16" value="" style="endArrow=none;html=1;rounded=0;entryX=0.5;entryY=1;entryDx=0;entryDy=0;exitX=0.5;exitY=0;exitDx=0;exitDy=0;" parent="1" source="_n4gsnpSQP3cL_mL8Zwn-15" target="_n4gsnpSQP3cL_mL8Zwn-4" edge="1">
          <mxGeometry width="50" height="50" relative="1" as="geometry">
            <mxPoint x="580" y="360" as="sourcePoint" />
            <mxPoint x="630" y="310" as="targetPoint" />
          </mxGeometry>
        </mxCell>
        <mxCell id="_n4gsnpSQP3cL_mL8Zwn-18" value="Конец&lt;br style=&quot;border-color: var(--border-color);&quot;&gt;Lab8_Result" style="rounded=1;whiteSpace=wrap;html=1;arcSize=50;" parent="1" vertex="1">
          <mxGeometry x="530" y="430" width="140" height="50" as="geometry" />
        </mxCell>
        <mxCell id="OMGG5JUo4QJucABiLr08-1" value="" style="endArrow=none;html=1;rounded=0;exitX=0;exitY=0.5;exitDx=0;exitDy=0;entryX=0;entryY=0.5;entryDx=0;entryDy=0;" edge="1" parent="1" source="_n4gsnpSQP3cL_mL8Zwn-8" target="_n4gsnpSQP3cL_mL8Zwn-18">
          <mxGeometry width="50" height="50" relative="1" as="geometry">
            <mxPoint x="390" y="390" as="sourcePoint" />
            <mxPoint x="520" y="460" as="targetPoint" />
            <Array as="points">
              <mxPoint x="360" y="385" />
              <mxPoint x="360" y="455" />
            </Array>
          </mxGeometry>
        </mxCell>
        <mxCell id="OMGG5JUo4QJucABiLr08-2" value="Да" style="text;html=1;strokeColor=none;fillColor=none;align=center;verticalAlign=middle;whiteSpace=wrap;rounded=0;" vertex="1" parent="1">
          <mxGeometry x="750" y="350" width="60" height="30" as="geometry" />
        </mxCell>
        <mxCell id="OMGG5JUo4QJucABiLr08-3" value="Нет" style="text;html=1;strokeColor=none;fillColor=none;align=center;verticalAlign=middle;whiteSpace=wrap;rounded=0;" vertex="1" parent="1">
          <mxGeometry x="385" y="350" width="60" height="30" as="geometry" />
        </mxCell>
      </root>
    </mxGraphModel>
  </diagram>
</mxfile>
